<svg xmlns="http://www.w3.org/2000/svg" viewBox="0 0 52 52">
  <rect width="52" height="52" rx="3" fill="#07c160"/>
  <g fill="#fff">
    <!-- WeChat logo simplified -->
    <circle cx="20" cy="22" r="4"/>
    <circle cx="32" cy="22" r="4"/>
    <path d="M20 30c-5 0-9-3.5-9-8s4-8 9-8c1.3 0 2.5.2 3.7.7C22.5 15.3 21.3 16 20 16c-2.8 0-5 2.2-5 5s2.2 5 5 5c1.3 0 2.5.7 3.7 1.3-1.2.5-2.4.7-3.7.7z"/>
    <path d="M26 30c-1.3 0-2.5.7-3.7 1.3 1.2.5 2.4.7 3.7.7 5 0 9-3.5 9-8s-4-8-9-8c-1.3 0-2.5.2-3.7.7.7.7 1.3 1.7 1.3 2.8 0 2.8-2.2 5-5 5-.7 0-1.3-.3-1.8-.7C19 26.2 22 28 26 30z"/>
    <circle cx="17" cy="38" r="3" opacity=".6"/>
    <circle cx="29" cy="38" r="3" opacity=".6"/>
    <path d="M36 34c1.5 0 2.8 1.2 2.8 2.8 0 1.5-1.2 2.8-2.8 2.8H20l-4 4v-12h20z" opacity=".5"/>
  </g>
</svg>